<svg xmlns="http://www.w3.org/2000/svg" viewBox="0 0 100 100"><g fill="#858787"><path d="m93.5 41.6c-5.3 1.5-8.7.5-12.1-3.9-1.1-1.4-2.1-1.8-3.8-1.4-8.5 1.7-15.6-5.2-14.2-13.7.4-2.1-.1-3.3-1.8-4.5-3.4-2.5-4.7-5.9-4-10 .9-4.7 1-4.7-3.4-6.1-2.8 0-5.7 0-8.5 0-5.2 1.6-10.7 2.5-15.5 4.8-15.7 7.3-24.5 20-27.5 36.9-.1.7-.4 1.3-.5 2v9c.2.6.5 1.1.5 1.7 2.7 18.7 17.3 35 35.5 39.7 1.6.4 4 1.9 4.7-.8.6-2.5-2.1-2.4-3.6-2.8-18-4.6-32.4-21.9-33.3-40.1-1.3-22.9 15.4-42.8 38.7-46.1 3.1-.5 6.3-1.1 9.4.1-.8 6.7.1 9.3 4.1 14.1.8 1 1.2 2.5 1.3 3.8.2 9.6 6.8 16.1 16.3 16.2 1.4 0 3.1.7 4.1 1.7 2.8 2.5 5.9 3.8 9.6 3.9h4.7c-.3 3.6-.2 7-.9 10.2-3.6 19-14.9 31-33.4 36.3-1.4.4-3.4.6-2.9 2.7s2.3 1.4 3.8 1c18.7-5.1 30.5-17.2 35.6-35.8.6-2.1 1-4.2 1.5-6.4 0-3 0-6 0-9-1.4-4-1.6-4.3-4.4-3.5z"></path><path d="m49.1 94.2c-.5.5-.8 1.3-.9 2 0 .5.4 1.1.7 1.6h2.1c.2-.5.7-1.1.7-1.6-.1-.7-.4-1.5-.9-1.9-.3-.4-1.3-.4-1.7-.1z"></path><path d="m59.3 66.6c-.1 4.1 3.2 7.4 7.4 7.5 4.1.1 7.5-3.2 7.7-7.3.1-3.9-3.3-7.5-7.3-7.6-4.2-.1-7.7 3.2-7.8 7.4zm11.2.2c-.1 1.9-1.7 3.5-3.6 3.5-2.1 0-3.7-1.7-3.6-3.7s1.7-3.5 3.6-3.6c1.8 0 3.6 1.8 3.6 3.8z"></path><path d="m29.6 76c4.1-.1 7.2-3.3 7.2-7.6 0-4.2-3.2-7.3-7.4-7.3-4.1 0-7.5 3.3-7.5 7.4-.1 4 3.5 7.6 7.7 7.5zm-.3-11.2c2-.1 3.7 1.6 3.7 3.7 0 1.9-1.6 3.6-3.5 3.7-2 .1-3.7-1.6-3.7-3.7 0-1.9 1.6-3.6 3.5-3.7z"></path><path d="m46.3 25.7c.1-4.2-3.4-7.7-7.6-7.6-4 0-7.4 3.5-7.4 7.5 0 4.1 3.3 7.3 7.4 7.4 4.3 0 7.5-3.2 7.6-7.3zm-11.2-.3c.1-2 2-3.7 3.9-3.5 1.9.1 3.5 1.8 3.4 3.8-.1 1.9-1.8 3.5-3.6 3.5-2 0-3.8-1.8-3.7-3.8z"></path><path d="m46.3 47.9c-3-.1-5.8 2.7-5.8 5.8 0 2.9 2.7 5.6 5.7 5.6 3.2 0 5.8-2.6 5.8-5.7-.1-3-2.7-5.7-5.7-5.7zm-.2 8c-.7-1.1-1.6-1.9-1.5-2.4.2-.7 1.2-1.1 1.9-1.7.5.6 1.4 1.3 1.4 1.9 0 .7-.9 1.2-1.8 2.2z"></path><path d="m51.9 38.8c.6.6 1.2 1.6 1.9 1.7.6.1 1.4-.8 2.6-1.7-1.2-.9-2-2-2.5-1.9-.8.2-1.4 1.2-2 1.9z"></path><path d="m75 50c-1.1-1-1.9-2.1-2.4-2-.8.1-1.4 1.2-2 1.8.6.6 1.2 1.6 1.8 1.7.6.2 1.4-.7 2.6-1.5z"></path><path d="m22.1 42.6c-.7.2-1.3 1.2-1.9 1.9.6.6 1.2 1.6 1.9 1.6s1.4-.9 2.6-1.7c-1.2-.9-2.1-1.9-2.6-1.8z"></path><path d="m50.1 79.7c.6-.6 1.6-1.2 1.6-1.9.1-.7-.8-1.4-1.6-2.6-.9 1.2-2 2-1.9 2.5.2.8 1.2 1.4 1.9 2z"></path></g></svg>